<svg width="17" height="16" viewBox="0 0 17 16" fill="none" xmlns="http://www.w3.org/2000/svg">
<path d="M12.6656 0H3.33437C1.49375 0.003125 0.003125 1.49375 0 3.33437V12.6687C0.003125 14.5062 1.49375 15.9969 3.33437 16H12.6687C14.5094 15.9969 16 14.5062 16.0031 12.6656V3.33437C15.9969 1.49375 14.5062 0.003125 12.6656 0ZM14.6656 3.33437H10V1.33438H12.6656C13.7719 1.33438 14.6656 2.22812 14.6656 3.33437ZM7.33437 1.33438H8.66875V4.66875C8.66875 5.0375 8.36875 5.33437 8.00313 5.33437C7.63438 5.33437 7.3375 5.03437 7.3375 4.66875V1.33438H7.33437ZM3.33437 1.33438H6V3.33437H1.33438C1.33438 2.22812 2.22812 1.33438 3.33437 1.33438ZM12.6656 14.6656H3.33437C2.23125 14.6656 1.33438 13.7687 1.33438 12.6656V4.66563H6C6 5.76875 6.89687 6.66563 8 6.66563C9.10312 6.66563 10 5.76875 10 4.66563H14.6656V12.6656C14.6656 13.7719 13.7719 14.6656 12.6656 14.6656ZM13.3344 12.6656C13.3344 13.0344 13.0344 13.3313 12.6687 13.3313H10.6687C10.3 13.3313 10.0031 13.0312 10.0031 12.6656C10.0031 12.3 10.3031 12 10.6687 12H12.6687C13.0344 12 13.3344 12.3 13.3344 12.6656Z" fill="#828282"/>
</svg>
