<svg width="18" height="17" viewBox="0 0 18 17" fill="none" xmlns="http://www.w3.org/2000/svg">
<path d="M17.3693 7.59542C16.7493 2.81962 12.3721 -0.549338 7.59625 0.0740373C3.24624 0.639504 -0.00689992 4.34569 -8.70634e-05 8.73317C-0.00689992 11.1313 0.980965 13.4238 2.73187 15.0657C3.39272 15.6789 4.26817 16.0127 5.17087 16.0025H12.2699C13.2237 16.0059 14.14 15.6312 14.8213 14.9635C16.7834 13.0491 17.7304 10.3172 17.3693 7.59542ZM13.7994 13.9177C13.3906 14.3197 12.8387 14.5445 12.2665 14.5445H5.16747C4.63606 14.5547 4.12169 14.364 3.72655 14.0063C2.2686 12.6403 1.44424 10.7293 1.45105 8.72976C1.45105 6.66206 2.33332 4.68974 3.87643 3.31014C5.20153 2.11449 6.92518 1.45705 8.70675 1.46045C8.99289 1.46045 9.27562 1.47748 9.55836 1.50814C13.5439 1.97142 16.3985 5.57541 15.9352 9.56093C15.7444 11.2165 14.9882 12.7528 13.796 13.9177H13.7994ZM5.67502 11.8466C5.96116 12.126 5.96798 12.5892 5.68524 12.8754C5.40592 13.1615 4.94264 13.1683 4.6565 12.8856C2.36397 10.6374 2.3231 6.95842 4.57134 4.6659C5.6648 3.552 7.16023 2.92181 8.72037 2.92181C8.9997 2.92181 9.27562 2.94225 9.55154 2.97972C9.95009 3.03763 10.226 3.40552 10.1681 3.80407C10.117 4.19922 9.75593 4.47514 9.36078 4.42404C9.35397 4.42404 9.35056 4.42404 9.34375 4.42064C6.95925 4.07999 4.75188 5.73552 4.41124 8.12001C4.21367 9.4894 4.68375 10.8758 5.67502 11.8466ZM14.4738 7.902C14.5147 8.17792 14.5317 8.45384 14.5317 8.73317C14.5351 10.2967 13.905 11.799 12.7808 12.8856C12.4947 13.1649 12.0314 13.1615 11.7521 12.8754C11.4728 12.5892 11.4762 12.126 11.7623 11.8466C12.757 10.8758 13.2305 9.48599 13.0295 8.10979C12.9716 7.71124 13.2475 7.34335 13.6461 7.28544C14.048 7.22753 14.4159 7.50345 14.4738 7.902ZM10.1204 8.36187C10.3384 9.14875 9.87856 9.96289 9.09167 10.1809C8.30479 10.3989 7.49065 9.93904 7.27264 9.15216C7.05463 8.36528 7.5145 7.55114 8.30138 7.33313C8.56027 7.26159 8.83279 7.26159 9.09167 7.33313L11.8407 4.58414C12.12 4.2946 12.5799 4.28778 12.8694 4.56711C13.159 4.84644 13.1658 5.30631 12.8864 5.59585C12.8796 5.60266 12.8762 5.60948 12.8694 5.61288L10.1204 8.36187Z" fill="#828282"/>
</svg>
