<svg width="21" height="18" viewBox="0 0 21 18" fill="none" xmlns="http://www.w3.org/2000/svg">
<path d="M17.9447 9.45514V8.28888C17.9447 4.22234 14.6454 0.923065 10.5789 0.923065C6.51236 0.923065 3.21309 4.22234 3.21309 8.28888V9.45514C1.14529 10.3644 0.205379 12.7813 1.11843 14.8491C1.77062 16.3299 3.23227 17.289 4.85121 17.2928C5.7566 17.2928 6.48934 16.5601 6.48934 15.6547V10.7442C6.48934 9.83877 5.7566 9.10603 4.85121 9.10603V8.28888C4.85121 5.12388 7.41774 2.56119 10.5789 2.56119C13.7401 2.56119 16.3066 5.12388 16.3066 8.28888V9.10603C15.4012 9.10603 14.6685 9.83877 14.6685 10.7442V15.6547H12.2132C11.7605 15.6547 11.396 16.023 11.396 16.4718C11.396 16.9207 11.7643 17.289 12.2132 17.289H16.3066C18.5662 17.2813 20.3923 15.4437 20.3846 13.1841C20.3846 11.569 19.4256 10.1073 17.9447 9.45514ZM4.85121 15.6547C3.49698 15.6547 2.39594 14.5537 2.39594 13.1994C2.39594 11.8452 3.49698 10.7442 4.85121 10.7442V15.6547ZM16.3066 15.6547V10.7442C17.6608 10.7442 18.7619 11.8452 18.7619 13.1994C18.7619 14.5537 17.6647 15.6547 16.3066 15.6547Z" fill="#828282"/>
</svg>
