<svg width="20" height="20" viewBox="0 0 20 20" fill="none" xmlns="http://www.w3.org/2000/svg">
<path d="M19.2126 9.4324C18.8992 4.34242 14.5188 0.473603 9.43245 0.786998C4.34607 1.10039 0.473649 5.48073 0.787044 10.5707C1.08963 15.441 5.12776 19.2341 10.0052 19.2305H15.3726C17.4943 19.2269 19.2126 17.5086 19.2162 15.3869V9.4324H19.2126ZM17.678 15.3905C17.678 16.6621 16.6442 17.696 15.3726 17.696H10.0052C7.81143 17.696 5.72213 16.7594 4.25961 15.1276C2.7899 13.4957 2.09466 11.3056 2.35763 9.12261C2.77549 5.62122 5.5132 2.85109 9.01098 2.39C9.34239 2.34677 9.6774 2.32876 10.0088 2.32876C11.7991 2.32516 13.5354 2.94835 14.9115 4.09747C16.5361 5.44831 17.5339 7.40433 17.678 9.50805V15.3905V15.3905Z" fill="#828282"/>
<path d="M6.91816 7.70335H9.99088C10.4159 7.70335 10.7582 7.35754 10.7582 6.93607C10.7582 6.51101 10.4123 6.16879 9.99088 6.16879H6.91816C6.49309 6.16879 6.15088 6.51461 6.15088 6.93607C6.15088 7.36114 6.49309 7.70335 6.91816 7.70335Z" fill="#828282"/>
<path d="M13.0672 9.24149H6.91816C6.49309 9.24149 6.15088 9.5873 6.15088 10.0088C6.15088 10.4338 6.4967 10.776 6.91816 10.776H13.0672C13.4923 10.776 13.8345 10.4302 13.8345 10.0088C13.8345 9.5837 13.4887 9.24149 13.0672 9.24149Z" fill="#828282"/>
<path d="M13.0672 12.3142H6.91816C6.49309 12.3142 6.15088 12.6601 6.15088 13.0815C6.15088 13.5066 6.4967 13.8488 6.91816 13.8488H13.0672C13.4923 13.8488 13.8345 13.503 13.8345 13.0815C13.8345 12.6601 13.4887 12.3142 13.0672 12.3142Z" fill="#828282"/>
</svg>
