<svg width="20" height="20" viewBox="0 0 20 20" fill="none" xmlns="http://www.w3.org/2000/svg">
<path d="M6.1527 0.769226H3.84501C2.14669 0.769226 0.769287 2.14663 0.769287 3.84495V6.15264C0.769287 7.85096 2.14669 9.22836 3.84501 9.22836H6.1527C7.85102 9.22836 9.22842 7.85096 9.22842 6.15264V3.84495C9.23203 2.14663 7.85462 0.769226 6.1527 0.769226ZM7.69236 6.15264C7.69236 7.0036 7.00366 7.6923 6.1527 7.6923H3.84501C2.99405 7.6923 2.30534 7.0036 2.30534 6.15264V3.84495C2.30534 2.99399 2.99405 2.30528 3.84501 2.30528H6.1527C7.00366 2.30528 7.69236 2.99399 7.69236 3.84495V6.15264Z" fill="#828282"/>
<path d="M16.1554 0.769226H13.8477C12.1494 0.769226 10.772 2.14663 10.772 3.84495V6.15264C10.772 7.85096 12.1494 9.22836 13.8477 9.22836H16.1554C17.8537 9.22836 19.2311 7.85096 19.2311 6.15264V3.84495C19.2311 2.14663 17.8537 0.769226 16.1554 0.769226ZM17.6914 6.15264C17.6914 7.0036 17.0027 7.6923 16.1518 7.6923H13.8441C12.9931 7.6923 12.3044 7.0036 12.3044 6.15264V3.84495C12.3044 2.99399 12.9931 2.30528 13.8441 2.30528H16.1518C17.0027 2.30528 17.6914 2.99399 17.6914 3.84495V6.15264Z" fill="#828282"/>
<path d="M6.1527 10.768H3.84501C2.14669 10.768 0.769287 12.1454 0.769287 13.8473V16.155C0.769287 17.8533 2.14669 19.2307 3.84501 19.2307H6.1527C7.85102 19.2307 9.22842 17.8533 9.22842 16.155V13.8473C9.23203 12.1454 7.85462 10.768 6.1527 10.768ZM7.69236 16.155C7.69236 17.006 7.00366 17.6947 6.1527 17.6947H3.84501C2.99405 17.6947 2.30534 17.006 2.30534 16.155V13.8473C2.30534 12.9964 2.99405 12.3077 3.84501 12.3077H6.1527C7.00366 12.3077 7.69236 12.9964 7.69236 13.8473V16.155Z" fill="#828282"/>
<path d="M16.1554 10.768H13.8477C12.1494 10.768 10.772 12.1454 10.772 13.8437V16.1514C10.772 17.8497 12.1494 19.2271 13.8477 19.2271H16.1554C17.8537 19.2271 19.2311 17.8497 19.2311 16.1514V13.8437C19.2311 12.1454 17.8537 10.768 16.1554 10.768ZM17.6914 16.155C17.6914 17.006 17.0027 17.6947 16.1518 17.6947H13.8441C12.9931 17.6947 12.3044 17.006 12.3044 16.155V13.8473C12.3044 12.9964 12.9931 12.3077 13.8441 12.3077H16.1518C17.0027 12.3077 17.6914 12.9964 17.6914 13.8473V16.155Z" fill="#828282"/>
</svg>
