<svg width="4" height="12" viewBox="0 0 4 12" fill="none" xmlns="http://www.w3.org/2000/svg">
<path d="M2 4.61932C1.26172 4.61932 0.6875 5.22089 0.6875 5.93182C0.6875 6.6701 1.26172 7.24432 2 7.24432C2.71094 7.24432 3.3125 6.6701 3.3125 5.93182C3.3125 5.22089 2.71094 4.61932 2 4.61932ZM0.6875 1.77557C0.6875 2.51385 1.26172 3.08807 2 3.08807C2.71094 3.08807 3.3125 2.51385 3.3125 1.77557C3.3125 1.06464 2.71094 0.463074 2 0.463074C1.26172 0.463074 0.6875 1.06464 0.6875 1.77557ZM0.6875 10.0881C0.6875 10.8264 1.26172 11.4006 2 11.4006C2.71094 11.4006 3.3125 10.8264 3.3125 10.0881C3.3125 9.37714 2.71094 8.77557 2 8.77557C1.26172 8.77557 0.6875 9.37714 0.6875 10.0881Z" fill="#828282"/>
</svg>
