<svg width="16" height="16" viewBox="0 0 16 16" fill="none" xmlns="http://www.w3.org/2000/svg">
<path d="M6.0023 9.35328H10.0161C10.3843 9.35328 10.6789 9.05869 10.6789 8.69045C10.6789 8.32221 10.3843 8.02762 10.0161 8.02762H6.0023C5.63406 8.02762 5.33947 8.32221 5.33947 8.69045C5.33947 9.05869 5.63406 9.35328 6.0023 9.35328Z" fill="#5B86E5"/>
<path d="M12.6858 0H3.33257C1.49137 0 0 1.49137 0 3.33257V3.9954C0 4.56617 0.239356 5.10011 0.662831 5.48677V12.6674C0.662831 14.5086 2.1542 16 3.9954 16H12.0046C13.8458 16 15.3372 14.5086 15.3372 12.6674V5.48677C15.7606 5.10011 16 4.56617 16 3.9954V3.33257C16.0184 1.49137 14.527 0 12.6858 0ZM1.34407 3.33257C1.34407 2.22785 2.24626 1.32566 3.35098 1.32566H12.7043C13.809 1.32566 14.7112 2.22785 14.7112 3.33257V3.9954C14.7112 4.36364 14.4166 4.65823 14.0483 4.65823H2.0069C1.63866 4.65823 1.34407 4.36364 1.34407 3.9954V3.33257ZM14.0115 12.6858C14.0115 13.7906 13.1093 14.6927 12.0046 14.6927H4.01381C2.90909 14.6927 2.0069 13.7906 2.0069 12.6858V6.0023H14.0299V12.6858H14.0115Z" fill="#5B86E5"/>
</svg>
